<svg width="180" height="27" viewBox="0 0 180 27" fill="none" xmlns="http://www.w3.org/2000/svg">
<rect width="179.73" height="26.7008" rx="2.35038" fill="#00818F"/>
<g clip-path="url(#clip0)">
<path d="M15.3001 7.51619V11.6323C15.3001 14.7105 13.7068 17.5381 11.1643 19.0414C8.65576 17.5739 7.02857 14.7105 7.02857 11.6323V7.51619H11.1643H15.3001ZM16.4527 6.29924H11.1643H5.87598V11.6323C5.87598 15.4979 8.04556 18.8624 11.1643 20.4015C14.2831 18.8624 16.4527 15.4979 16.4527 11.6323V6.29924Z" fill="white"/>
<path d="M11.1643 6.29924H5.87598V11.6323C5.87598 15.4979 8.04556 18.8624 11.1643 20.4015V6.29924Z" fill="white"/>
</g>
<path d="M27.1073 9.15569H30.4637C30.9619 9.15569 31.4273 9.2074 31.8598 9.31081C32.3017 9.40483 32.6824 9.56935 33.0021 9.80439C33.3311 10.03 33.5897 10.3356 33.7777 10.721C33.9657 11.0971 34.0597 11.5625 34.0597 12.1172C34.0597 12.6531 33.961 13.1184 33.7636 13.5133C33.5756 13.9082 33.317 14.2325 32.988 14.4864C32.6589 14.7402 32.2782 14.9282 31.8457 15.0504C31.4132 15.1727 30.9525 15.2338 30.4637 15.2338H29.1804V18.3504H27.1073V9.15569ZM30.3367 13.5838C31.4649 13.5838 32.029 13.0949 32.029 12.1172C32.029 11.6377 31.8833 11.2992 31.5918 11.1018C31.3098 10.9044 30.8914 10.8057 30.3367 10.8057H29.1804V13.5838H30.3367ZM38.9078 13.3864H39.9796C40.5249 13.3864 40.9385 13.2736 41.2206 13.0479C41.512 12.8129 41.6578 12.4697 41.6578 12.0185C41.6578 11.5672 41.512 11.2522 41.2206 11.0736C40.9385 10.895 40.5249 10.8057 39.9796 10.8057H38.9078V13.3864ZM41.8129 18.3504L40.0501 15.0363H38.9078V18.3504H36.8348V9.15569H40.1488C40.6377 9.15569 41.0937 9.2027 41.5167 9.29671C41.9492 9.39073 42.3253 9.55055 42.6449 9.77619C42.9646 9.99242 43.2184 10.2839 43.4064 10.6505C43.5945 11.0172 43.6885 11.4732 43.6885 12.0185C43.6885 12.6954 43.5381 13.2548 43.2372 13.6966C42.9458 14.1291 42.5509 14.4534 42.0526 14.6697L44.1398 18.3504H41.8129ZM50.4371 18.5196C49.8166 18.5196 49.2478 18.4115 48.7307 18.1953C48.223 17.9696 47.7858 17.65 47.4192 17.2363C47.0525 16.8226 46.7658 16.3197 46.5589 15.7274C46.3615 15.1351 46.2628 14.4629 46.2628 13.7107C46.2628 12.9586 46.3615 12.2911 46.5589 11.7082C46.7658 11.1159 47.0525 10.6223 47.4192 10.2275C47.7858 9.8232 48.223 9.51765 48.7307 9.31081C49.2478 9.09458 49.8166 8.98646 50.4371 8.98646C51.0576 8.98646 51.6217 9.09458 52.1293 9.31081C52.6464 9.51765 53.0883 9.8232 53.4549 10.2275C53.8216 10.6317 54.1037 11.13 54.3011 11.7223C54.5079 12.3052 54.6113 12.968 54.6113 13.7107C54.6113 14.4629 54.5079 15.1351 54.3011 15.7274C54.1037 16.3197 53.8216 16.8226 53.4549 17.2363C53.0883 17.65 52.6464 17.9696 52.1293 18.1953C51.6217 18.4115 51.0576 18.5196 50.4371 18.5196ZM50.4371 16.7286C51.067 16.7286 51.5652 16.4607 51.9319 15.9248C52.2986 15.3795 52.4819 14.6415 52.4819 13.7107C52.4819 12.7894 52.2986 12.0702 51.9319 11.5531C51.5652 11.036 51.067 10.7775 50.4371 10.7775C49.8072 10.7775 49.3089 11.036 48.9422 11.5531C48.5756 12.0702 48.3922 12.7894 48.3922 13.7107C48.3922 14.6415 48.5756 15.3795 48.9422 15.9248C49.3089 16.4607 49.8072 16.7286 50.4371 16.7286ZM59.0309 10.9044H56.5066V9.15569H63.6424V10.9044H61.1181V18.3504H59.0309V10.9044ZM66.2513 9.15569H72.005V10.9044H68.3243V12.7518H71.455V14.4864H68.3243V16.6017H72.146V18.3504H66.2513V9.15569ZM74.7153 13.8094C74.7153 13.0479 74.8328 12.371 75.0678 11.7787C75.3028 11.177 75.6178 10.6693 76.0127 10.2557C76.4169 9.842 76.8823 9.52705 77.4088 9.31081C77.9447 9.09458 78.5088 8.98646 79.1011 8.98646C79.6746 8.98646 80.1916 9.10868 80.6523 9.35312C81.1224 9.58816 81.5126 9.8655 81.8228 10.1852L80.6805 11.4685C80.4455 11.2522 80.2057 11.083 79.9613 10.9608C79.7263 10.8386 79.4489 10.7775 79.1293 10.7775C78.8096 10.7775 78.5088 10.848 78.2267 10.989C77.9541 11.1206 77.7143 11.3133 77.5075 11.5672C77.3007 11.821 77.1361 12.1313 77.0139 12.4979C76.9011 12.8646 76.8447 13.2783 76.8447 13.7389C76.8447 14.6885 77.0468 15.4265 77.4511 15.953C77.8554 16.4701 78.396 16.7286 79.0729 16.7286C79.4489 16.7286 79.778 16.6534 80.06 16.503C80.3421 16.3526 80.5959 16.1551 80.8215 15.9107L81.9638 17.1658C81.5784 17.6171 81.1365 17.9555 80.6382 18.1812C80.1493 18.4068 79.6181 18.5196 79.0447 18.5196C78.4524 18.5196 77.893 18.4209 77.3665 18.2235C76.84 18.0166 76.3793 17.7158 75.9845 17.3209C75.5896 16.9261 75.2793 16.4372 75.0537 15.8543C74.8281 15.262 74.7153 14.5804 74.7153 13.8094ZM86.1613 10.9044H83.637V9.15569H90.7728V10.9044H88.2485V18.3504H86.1613V10.9044ZM99.0697 15.0787L96.2915 9.15569H98.5197L99.3376 11.271C99.4693 11.6189 99.5915 11.9573 99.7043 12.2864C99.8265 12.606 99.9534 12.9445 100.085 13.3018H100.141C100.273 12.9445 100.4 12.606 100.522 12.2864C100.654 11.9573 100.785 11.6189 100.917 11.271L101.749 9.15569H103.921L101.143 15.0787V18.3504H99.0697V15.0787ZM109.564 18.5196C108.943 18.5196 108.375 18.4115 107.857 18.1953C107.35 17.9696 106.913 17.65 106.546 17.2363C106.179 16.8226 105.893 16.3197 105.686 15.7274C105.488 15.1351 105.39 14.4629 105.39 13.7107C105.39 12.9586 105.488 12.2911 105.686 11.7082C105.893 11.1159 106.179 10.6223 106.546 10.2275C106.913 9.8232 107.35 9.51765 107.857 9.31081C108.375 9.09458 108.943 8.98646 109.564 8.98646C110.184 8.98646 110.748 9.09458 111.256 9.31081C111.773 9.51765 112.215 9.8232 112.582 10.2275C112.948 10.6317 113.23 11.13 113.428 11.7223C113.635 12.3052 113.738 12.968 113.738 13.7107C113.738 14.4629 113.635 15.1351 113.428 15.7274C113.23 16.3197 112.948 16.8226 112.582 17.2363C112.215 17.65 111.773 17.9696 111.256 18.1953C110.748 18.4115 110.184 18.5196 109.564 18.5196ZM109.564 16.7286C110.194 16.7286 110.692 16.4607 111.059 15.9248C111.425 15.3795 111.609 14.6415 111.609 13.7107C111.609 12.7894 111.425 12.0702 111.059 11.5531C110.692 11.036 110.194 10.7775 109.564 10.7775C108.934 10.7775 108.436 11.036 108.069 11.5531C107.702 12.0702 107.519 12.7894 107.519 13.7107C107.519 14.6415 107.702 15.3795 108.069 15.9248C108.436 16.4607 108.934 16.7286 109.564 16.7286ZM116.586 9.15569H118.673V14.303C118.673 15.2056 118.809 15.8355 119.082 16.1927C119.355 16.55 119.749 16.7286 120.266 16.7286C120.784 16.7286 121.183 16.55 121.465 16.1927C121.747 15.8355 121.888 15.2056 121.888 14.303V9.15569H123.891V14.0915C123.891 15.6333 123.581 16.7568 122.96 17.4619C122.349 18.1671 121.451 18.5196 120.266 18.5196C119.072 18.5196 118.161 18.1671 117.531 17.4619C116.901 16.7568 116.586 15.6333 116.586 14.0915V9.15569ZM129.269 13.3864H130.341C130.886 13.3864 131.3 13.2736 131.582 13.0479C131.873 12.8129 132.019 12.4697 132.019 12.0185C132.019 11.5672 131.873 11.2522 131.582 11.0736C131.3 10.895 130.886 10.8057 130.341 10.8057H129.269V13.3864ZM132.174 18.3504L130.411 15.0363H129.269V18.3504H127.196V9.15569H130.51C130.999 9.15569 131.455 9.2027 131.878 9.29671C132.31 9.39073 132.686 9.55055 133.006 9.77619C133.326 9.99242 133.58 10.2839 133.768 10.6505C133.956 11.0172 134.05 11.4732 134.05 12.0185C134.05 12.6954 133.899 13.2548 133.598 13.6966C133.307 14.1291 132.912 14.4534 132.414 14.6697L134.501 18.3504H132.174ZM141.762 15.7697C142.091 16.0517 142.453 16.282 142.848 16.4607C143.252 16.6393 143.647 16.7286 144.032 16.7286C144.465 16.7286 144.785 16.6487 144.991 16.4889C145.208 16.3291 145.316 16.1128 145.316 15.8402C145.316 15.6992 145.283 15.5769 145.217 15.4735C145.161 15.3701 145.071 15.2808 144.949 15.2056C144.836 15.121 144.695 15.0457 144.526 14.9799C144.366 14.9047 144.188 14.8248 143.99 14.7402L142.791 14.2325C142.556 14.1385 142.326 14.0163 142.1 13.8659C141.884 13.7154 141.687 13.5415 141.508 13.3441C141.339 13.1372 141.203 12.9022 141.099 12.639C140.996 12.3663 140.944 12.0608 140.944 11.7223C140.944 11.3462 141.024 10.9937 141.184 10.6646C141.344 10.3262 141.569 10.0347 141.861 9.79029C142.152 9.53645 142.495 9.33902 142.89 9.19799C143.294 9.05697 143.736 8.98646 144.216 8.98646C144.752 8.98646 145.278 9.08988 145.795 9.29671C146.322 9.50354 146.782 9.80439 147.177 10.1993L146.12 11.5108C145.819 11.2757 145.518 11.0971 145.217 10.9749C144.916 10.8433 144.582 10.7775 144.216 10.7775C143.859 10.7775 143.572 10.8527 143.356 11.0031C143.149 11.1441 143.045 11.3462 143.045 11.6095C143.045 11.7505 143.078 11.8727 143.144 11.9761C143.219 12.0702 143.318 12.1595 143.44 12.2441C143.572 12.3193 143.722 12.3945 143.891 12.4697C144.061 12.5355 144.244 12.6107 144.441 12.6954L145.626 13.1748C146.19 13.4005 146.632 13.7107 146.952 14.1056C147.281 14.5005 147.445 15.0222 147.445 15.6709C147.445 16.0564 147.365 16.4231 147.205 16.7709C147.055 17.1094 146.829 17.4102 146.529 17.6735C146.237 17.9273 145.875 18.1341 145.443 18.294C145.01 18.4444 144.521 18.5196 143.976 18.5196C143.374 18.5196 142.773 18.4115 142.171 18.1953C141.579 17.9696 141.047 17.6359 140.577 17.194L141.762 15.7697ZM151.697 10.9044H149.172V9.15569H156.308V10.9044H153.784V18.3504H151.697V10.9044ZM162.244 14.5428L162.033 13.6966C161.901 13.236 161.774 12.7471 161.652 12.23C161.53 11.7129 161.408 11.2146 161.286 10.7351H161.229C161.116 11.224 160.999 11.727 160.877 12.2441C160.764 12.7518 160.642 13.236 160.51 13.6966L160.284 14.5428H162.244ZM162.668 16.1645H159.861L159.297 18.3504H157.182L160.059 9.15569H162.555L165.432 18.3504H163.232L162.668 16.1645ZM168.943 15.0787L166.165 9.15569H168.393L169.211 11.271C169.343 11.6189 169.465 11.9573 169.578 12.2864C169.7 12.606 169.827 12.9445 169.958 13.3018H170.015C170.146 12.9445 170.273 12.606 170.396 12.2864C170.527 11.9573 170.659 11.6189 170.79 11.271L171.622 9.15569H173.794L171.016 15.0787V18.3504H168.943V15.0787Z" fill="white"/>
<defs>
<clipPath id="clip0">
<rect x="5.87598" y="6.29924" width="10.5767" height="14.1023" fill="white"/>
</clipPath>
</defs>
</svg>
